<?xml version="1.0" encoding="utf-8"?>
<!-- Generator: Adobe Illustrator 19.0.0, SVG Export Plug-In . SVG Version: 6.00 Build 0)  -->
<svg version="1.1" id="Layer_1" xmlns="http://www.w3.org/2000/svg" xmlns:xlink="http://www.w3.org/1999/xlink" x="0px" y="0px"
	 viewBox="0 0 196.9 61.7" style="enable-background:new 0 0 196.9 61.7;" xml:space="preserve">
<style type="text/css">
	.st0{fill:#FFBDF4;}
</style>
<g id="XMLID_2_">
	<g id="XMLID_4_">
		<g id="XMLID_16_">
			<path id="XMLID_20_" class="st0" d="M79.5,30.5c9.9,1.6,20.1,1.7,30.1,1.1c9.7-0.6,20.4-1.5,29.7-4.7c4.4-1.5,9.5-5.8,7-11
				c-2.6-5.6-9.2-2.1-12.1,1.1c0.6,0.2,1.1,0.5,1.7,0.7c0-6.3-2.5-17.8-11.6-14.3c-9.4,3.5,2.2,16.1,5.6,19.4
				c0.8,0.8,2.1-0.2,1.5-1.2c-1.7-3-12.1-12.8-6-16.1c6.9-3.7,8.4,8.5,8.5,12.2c0,0.8,1.1,1.4,1.7,0.7c1.3-1.5,2.6-2.7,4.5-3.2
				c4-1.1,6.4,3.3,4.5,6.6c-1.8,3.1-5.9,4.1-9.1,4.9c-6.3,1.5-12.8,2.6-19.3,3.3c-12.3,1.4-24.4,0.9-36.7,0.3
				C79.4,30.2,79.4,30.5,79.5,30.5L79.5,30.5z"/>
		</g>
	</g>
	<path id="XMLID_8_" class="st0" d="M14.2,25.2c0,0.4,0,1,0,1.6s0,1.4-0.1,2.4c0,0.9-0.1,2-0.1,3.3c0,1.3-0.1,2.7-0.1,4.3
		c1.4,0,2.8-0.1,4.1-0.1c1.3,0,2.6-0.1,3.9-0.1c1.3,0,2.6,0,3.9-0.1c1.3,0,2.6,0,4,0c0-1,0.1-2,0.1-3c0-1,0.1-2.1,0.1-3.2
		s0.1-2.3,0.2-3.6c0.1-1.3,0.2-2.7,0.3-4.3c0-0.2,0.1-0.4,0.2-0.6c0.1-0.2,0.3-0.3,0.5-0.4c0.2-0.1,0.4-0.2,0.6-0.2
		c0.2,0,0.5-0.1,0.7-0.1c0.3,0,0.6,0,0.9,0.1s0.7,0.2,1,0.3c-0.1,1.6-0.3,3.2-0.4,4.7c-0.1,1.5-0.2,2.9-0.3,4.3
		c-0.1,1.4-0.1,2.8-0.2,4.2s-0.1,2.8-0.1,4.2c0,1.4-0.1,2.8-0.1,4.3c0,1.5,0,3,0,4.6c0,1.1,0,2,0.1,2.7c0.1,0.7,0.2,1.4,0.5,1.8
		c0.2,0.5,0.5,0.8,0.9,1c0.4,0.2,0.8,0.3,1.4,0.3c0.4,0,0.8,0,1.3-0.1s1-0.2,1.6-0.5l0.4,1.2c-0.7,0.3-1.4,0.6-2,0.8
		c-0.6,0.2-1.2,0.4-1.7,0.6c-0.5,0.1-1,0.3-1.5,0.3s-0.9,0.1-1.3,0.1c-0.6,0-1.1-0.1-1.5-0.3c-0.4-0.2-0.8-0.6-1.1-1.1
		c-0.3-0.5-0.5-1.1-0.6-1.9c-0.1-0.8-0.2-1.8-0.2-2.9v-3.4c0-0.8,0-1.5,0-2.2s0-1.4,0-2.1s0-1.3,0-1.9c0-0.6,0-1.2,0-1.9
		c-1.4,0-2.7,0-4,0c-1.3,0-2.6,0-3.9,0.1c-1.3,0-2.6,0.1-3.9,0.1c-1.3,0-2.7,0.1-4.1,0.2l-0.5,16.7l-3.5,0.4l-0.3,0
		c0.1-2.8,0.2-5.6,0.3-8.1c0.1-2.6,0.2-5.1,0.2-7.5c0.1-2.4,0.1-4.8,0.2-7.2c0-2.4,0.1-4.7,0.1-7.2c0-0.5,0-0.9-0.1-1.2
		c-0.1-0.3-0.2-0.6-0.4-0.8c-0.2-0.2-0.4-0.4-0.7-0.5c-0.3-0.1-0.7-0.1-1.2-0.1c-0.7,0-1.5,0.1-2.5,0.2l-0.1-1.2
		c1.4-0.4,2.7-0.6,3.7-0.8c1-0.2,1.8-0.3,2.5-0.3c0.7,0,1.2,0.1,1.6,0.3c0.4,0.2,0.7,0.4,0.8,0.8c0.2,0.3,0.3,0.8,0.3,1.3
		S14.2,24.6,14.2,25.2z"/>
	<path id="XMLID_21_" class="st0" d="M55.4,50.8c0.1,0,0.1,0.1,0.2,0.1c0.1,0.1,0.2,0.1,0.3,0.2c0.1,0.1,0.1,0.1,0.2,0.2
		s0.1,0.1,0.1,0.2c0,0,0,0.1,0,0.1c-0.6,0.8-1.2,1.4-1.8,2c-0.6,0.6-1.3,1-2,1.4c-0.7,0.4-1.4,0.7-2.1,0.8c-0.7,0.2-1.4,0.3-2.1,0.3
		c-1.2,0-2.3-0.2-3.3-0.7c-1-0.5-1.8-1.2-2.6-2s-1.3-1.8-1.7-3c-0.4-1.1-0.6-2.4-0.6-3.7c0-1.1,0.1-2.1,0.4-3.2c0.2-1.1,0.6-2.1,1-3
		c0.4-1,1-1.9,1.6-2.7s1.4-1.5,2.2-2.2c0.8-0.6,1.7-1.1,2.7-1.4c1-0.3,2-0.5,3.1-0.5c0.7,0,1.4,0.1,2.1,0.3c0.7,0.2,1.2,0.5,1.7,0.9
		s0.9,0.8,1.2,1.4c0.3,0.5,0.4,1.2,0.4,1.9c0,1-0.3,1.9-1,2.7c-0.7,0.8-1.6,1.4-2.7,1.9c-1.2,0.5-2.5,1-4.1,1.3
		c-1.6,0.3-3.3,0.6-5.1,0.7v0.3c0,1.3,0.2,2.4,0.5,3.5c0.3,1.1,0.8,2,1.3,2.7c0.6,0.7,1.2,1.3,2,1.7c0.8,0.4,1.6,0.6,2.5,0.6
		c0.9,0,1.8-0.2,2.7-0.7C53.5,52.5,54.5,51.8,55.4,50.8z M52.6,38.9c0-0.5-0.1-0.9-0.2-1.3c-0.2-0.4-0.4-0.7-0.6-1s-0.6-0.5-1-0.7
		c-0.4-0.2-0.8-0.3-1.2-0.3c-0.6,0-1.2,0.1-1.8,0.3c-0.5,0.2-1,0.5-1.4,0.9c-0.4,0.4-0.8,0.8-1.1,1.4s-0.6,1.1-0.8,1.7
		c-0.2,0.6-0.4,1.2-0.5,1.8c-0.1,0.6-0.2,1.2-0.3,1.8c1.4-0.1,2.7-0.3,3.8-0.5c1.1-0.2,2.1-0.6,2.8-0.9c0.8-0.4,1.4-0.8,1.8-1.4
		S52.6,39.5,52.6,38.9z"/>
	<path id="XMLID_24_" class="st0" d="M71.6,40.1c0-0.8-0.1-1.5-0.4-2c-0.3-0.6-0.6-1-1-1.4s-0.9-0.6-1.4-0.8s-1.1-0.3-1.6-0.3
		c-0.7,0-1.3,0.1-1.8,0.2c-0.5,0.1-0.9,0.4-1.2,0.6s-0.5,0.6-0.7,0.9c-0.1,0.4-0.2,0.7-0.2,1.1c0,0.5,0.1,1,0.3,1.4s0.4,1,0.8,1.4
		l-0.1,0.2c-0.6,0.3-1.1,0.4-1.7,0.4c-0.3,0-0.7-0.1-0.9-0.2c-0.3-0.1-0.5-0.3-0.8-0.5c-0.2-0.2-0.4-0.4-0.5-0.7
		c-0.1-0.3-0.2-0.6-0.2-1c0-0.6,0.1-1.1,0.4-1.7c0.3-0.5,0.7-1,1.1-1.4s1-0.8,1.6-1.1c0.6-0.3,1.3-0.6,1.9-0.9s1.3-0.4,2-0.5
		c0.7-0.1,1.3-0.2,1.8-0.2c1,0,1.9,0.1,2.7,0.4s1.3,0.7,1.8,1.2c0.5,0.5,0.8,1.2,1,1.9c0.2,0.8,0.3,1.6,0.3,2.6c0,0.7,0,1.4-0.1,2.2
		c-0.1,0.8-0.1,1.6-0.2,2.5c-0.1,0.9-0.1,1.7-0.2,2.7s-0.1,1.8-0.1,2.7c0,1.4,0.3,2.5,0.8,3.2c0.5,0.7,1.2,1.1,2.1,1.1
		c0.8,0,1.6-0.3,2.6-0.8l0.4,0.6c-0.7,0.7-1.4,1.2-2.2,1.5s-1.6,0.5-2.5,0.5c-0.6,0-1.2-0.1-1.8-0.3c-0.5-0.2-1-0.5-1.4-1
		c-0.4-0.4-0.7-1-0.9-1.6c-0.2-0.7-0.3-1.4-0.3-2.3c0-0.3,0-0.5,0-0.8c0-0.3,0-0.5,0.1-0.8h-0.1c-0.4,0.9-0.9,1.7-1.5,2.5
		c-0.6,0.8-1.2,1.6-1.8,2.2c-0.7,0.7-1.4,1.2-2.1,1.6c-0.8,0.4-1.6,0.6-2.4,0.6c-0.7,0-1.3-0.1-1.9-0.4c-0.6-0.2-1.1-0.6-1.5-1
		c-0.4-0.4-0.7-0.9-0.9-1.5c-0.2-0.6-0.3-1.2-0.3-1.9c0-0.9,0.2-1.7,0.5-2.4s0.8-1.4,1.3-1.9c0.6-0.6,1.3-1.1,2-1.5s1.7-0.8,2.6-1
		c0.9-0.3,1.9-0.5,3-0.6c1-0.1,2.1-0.2,3.2-0.2c0.1-0.6,0.1-1.2,0.2-1.8C71.5,41.5,71.6,40.8,71.6,40.1z M62.4,50.4
		c0,0.4,0,0.8,0.1,1.1c0.1,0.4,0.2,0.7,0.4,0.9c0.2,0.3,0.4,0.5,0.7,0.6c0.3,0.2,0.6,0.2,1,0.2c0.4,0,0.9-0.1,1.4-0.3
		c0.5-0.2,0.9-0.5,1.4-0.9c0.5-0.4,0.9-0.8,1.3-1.3c0.4-0.5,0.8-1.1,1.1-1.7c0.3-0.6,0.6-1.2,0.8-1.9c0.2-0.7,0.4-1.4,0.4-2.1
		c-0.7,0-1.5,0.1-2.2,0.1s-1.4,0.2-2.1,0.3c-0.7,0.2-1.3,0.4-1.8,0.6c-0.6,0.3-1,0.6-1.4,1c-0.4,0.4-0.7,0.8-0.9,1.4
		S62.4,49.7,62.4,50.4z"/>
	<path id="XMLID_84_" class="st0" d="M83.2,55.8l-0.2,0c0.1-0.9,0.2-2,0.2-3.1c0.1-1.1,0.1-2.2,0.2-3.4c0.1-1.1,0.1-2.3,0.2-3.4
		c0-1.1,0.1-2.2,0.1-3.2c0-1,0.1-1.9,0.1-2.6c0-0.8,0-1.4,0-1.8c0-0.4,0-0.7,0-1c0-0.3-0.1-0.5-0.2-0.7c-0.1-0.2-0.3-0.3-0.5-0.4
		c-0.2-0.1-0.5-0.1-0.8-0.1c-0.2,0-0.3,0-0.5,0c-0.2,0-0.4,0-0.6,0.1c-0.2,0-0.5,0.1-0.7,0.2c-0.3,0.1-0.6,0.1-0.9,0.2l-0.2-1.1
		c1.6-0.6,3-1,4-1.3s1.7-0.4,2.1-0.4c0.7,0,1.1,0.2,1.4,0.6c0.3,0.4,0.4,1,0.4,1.7c0,0.1,0,0.3,0,0.6c0,0.3,0,0.8-0.1,1.3
		s-0.1,1.2-0.1,1.9s-0.1,1.5-0.2,2.3c-0.1,0.8-0.1,1.7-0.2,2.6c-0.1,0.9-0.2,1.8-0.3,2.7l0.1,0c0.5-1.9,1-3.8,1.6-5.4
		c0.6-1.7,1.3-3.1,2-4.4c0.7-1.2,1.6-2.2,2.5-2.9c0.9-0.7,1.9-1.1,3-1.1c0.4,0,0.7,0.1,1.1,0.2c0.3,0.1,0.6,0.3,0.8,0.5
		c0.2,0.2,0.4,0.5,0.6,0.8c0.1,0.3,0.2,0.6,0.2,1c0,0.4-0.1,0.9-0.3,1.3c-0.2,0.4-0.5,0.8-0.9,1.1h-0.1c-0.4-0.3-0.8-0.6-1.2-0.8
		c-0.4-0.2-0.8-0.2-1.2-0.2c-0.4,0-0.9,0.1-1.3,0.3s-0.8,0.4-1.1,0.7c-0.6,0.5-1.1,1.2-1.6,2s-0.9,1.8-1.3,2.8
		c-0.4,1-0.8,2.1-1.1,3.3c-0.3,1.1-0.6,2.2-0.8,3.3c-0.2,1.1-0.4,2.1-0.6,3c-0.1,0.9-0.2,1.7-0.3,2.4L83.2,55.8z"/>
	<path id="XMLID_88_" class="st0" d="M117.1,36.9l0.2-1.6c0.1-1,0.2-2,0.3-3c0.1-1,0.3-2,0.4-3.1s0.3-2,0.5-3s0.4-2,0.6-2.9
		c-0.2-0.1-0.5-0.2-0.7-0.3s-0.6-0.1-0.9-0.1c-0.2,0-0.4,0-0.6,0.1s-0.4,0.1-0.6,0.2c-0.2,0.1-0.3,0.2-0.5,0.4
		c-0.1,0.2-0.2,0.4-0.3,0.6c-0.3,1.7-0.6,3.5-0.9,5.3c-0.3,1.9-0.5,3.8-0.7,5.7l-0.2,1.6c-0.2,2-0.4,3.9-0.5,5.8
		c-0.1,1.9-0.2,3.7-0.2,5.5c0,1.6,0.1,2.9,0.3,4c0.2,1.1,0.5,1.9,0.9,2.5c0.4,0.6,0.9,1.1,1.4,1.3c0.6,0.2,1.2,0.4,1.8,0.4
		c0.5,0,1-0.1,1.6-0.2s1.2-0.3,1.8-0.6s1.2-0.5,1.8-0.9s1.2-0.7,1.9-1.1c0-0.4-0.2-0.7-0.5-1c-0.8,0.4-1.6,0.7-2.3,0.9
		c-0.7,0.2-1.3,0.3-1.8,0.3c-0.7,0-1.4-0.2-1.8-0.5c-0.5-0.3-0.9-0.8-1.1-1.3c-0.3-0.6-0.5-1.3-0.6-2.1s-0.2-1.8-0.2-2.8
		c0-0.4,0-1,0-1.7c0-0.7,0.1-1.4,0.1-2.3c0-0.9,0.1-1.8,0.2-2.9C116.9,39.1,116.9,38,117.1,36.9"/>
	<path id="XMLID_87_" class="st0" d="M117.1,36.9c0-0.6,0.1-1,0.2-1.6"/>
	<path id="XMLID_111_" class="st0" d="M109.6,53.5c-0.6,0.2-1.2,0.3-1.7,0.3c-0.7,0-1.4-0.2-1.8-0.5c-0.5-0.3-0.9-0.8-1.1-1.3
		c-0.3-0.6-0.5-1.3-0.6-2.1c-0.1-0.8-0.2-1.8-0.2-2.8c0-0.6,0-1.2,0-2c0-0.8,0.1-1.6,0.1-2.5c0-0.9,0.1-1.8,0.2-2.8
		c0.1-1,0.2-2,0.3-3.1c0.1-0.9,0.4-3.3,0.5-4.2c0.1-0.9,0.2-1.8,0.4-2.7c0.1-0.9,0.3-1.8,0.4-2.7s0.3-1.8,0.5-2.6
		c-0.2-0.1-0.5-0.2-0.7-0.3c-0.3-0.1-0.6-0.1-0.9-0.1c-0.2,0-0.4,0-0.6,0.1c-0.2,0-0.4,0.1-0.6,0.2c-0.2,0.1-0.3,0.2-0.5,0.4
		c-0.1,0.2-0.2,0.4-0.3,0.7c-0.1,0.6-0.2,1.3-0.3,2.1c-0.1,0.8-0.2,1.5-0.3,2.4s-0.2,1.7-0.3,2.6c-0.1,0.9-0.2,1.8-0.3,2.7
		c-0.2,1.9-0.5,5.5-0.6,7.4c-0.1,2-0.2,3.8-0.2,5.7c0,1.6,0.1,2.9,0.3,4c0.2,1.1,0.5,1.9,0.9,2.5c0.4,0.6,0.9,1.1,1.4,1.3
		c0.6,0.2,1.2,0.4,1.8,0.4c0.5,0,1-0.1,1.6-0.2c0.6-0.1,1.2-0.3,1.8-0.6c0.6-0.2,1.2-0.5,1.8-0.8c0.6-0.3,1.2-0.7,1.8-1
		c0-0.4-0.2-0.7-0.5-1C110.9,53,110.2,53.3,109.6,53.5z"/>
	<path id="XMLID_89_" class="st0" d="M138.6,40.1c0-0.8-0.1-1.5-0.4-2c-0.3-0.6-0.6-1-1-1.4s-0.9-0.6-1.4-0.8s-1.1-0.3-1.6-0.3
		c-0.7,0-1.3,0.1-1.8,0.2c-0.5,0.1-0.9,0.4-1.2,0.6s-0.5,0.6-0.7,0.9c-0.1,0.4-0.2,0.7-0.2,1.1c0,0.5,0.1,1,0.3,1.4s0.4,1,0.8,1.4
		l-0.1,0.2c-0.6,0.3-1.1,0.4-1.7,0.4c-0.3,0-0.7-0.1-0.9-0.2c-0.3-0.1-0.5-0.3-0.8-0.5c-0.2-0.2-0.4-0.4-0.5-0.7
		c-0.1-0.3-0.2-0.6-0.2-1c0-0.6,0.1-1.1,0.4-1.7c0.3-0.5,0.7-1,1.1-1.4s1-0.8,1.6-1.1c0.6-0.3,1.3-0.6,1.9-0.9s1.3-0.4,2-0.5
		c0.7-0.1,1.3-0.2,1.8-0.2c1,0,1.9,0.1,2.7,0.4s1.3,0.7,1.8,1.2c0.5,0.5,0.8,1.2,1,1.9c0.2,0.8,0.3,1.6,0.3,2.6c0,0.7,0,1.4-0.1,2.2
		c-0.1,0.8-0.1,1.6-0.2,2.5c-0.1,0.9-0.1,1.7-0.2,2.7s-0.1,1.8-0.1,2.7c0,1.4,0.3,2.5,0.8,3.2c0.5,0.7,1.2,1.1,2.1,1.1
		c0.8,0,1.6-0.3,2.6-0.8l0.4,0.6c-0.7,0.7-1.4,1.2-2.2,1.5s-1.6,0.5-2.5,0.5c-0.6,0-1.2-0.1-1.8-0.3c-0.5-0.2-1-0.5-1.4-1
		c-0.4-0.4-0.7-1-0.9-1.6c-0.2-0.7-0.3-1.4-0.3-2.3c0-0.3,0-0.5,0-0.8c0-0.3,0-0.5,0.1-0.8h-0.1c-0.4,0.9-0.9,1.7-1.5,2.5
		c-0.6,0.8-1.2,1.6-1.8,2.2c-0.7,0.7-1.4,1.2-2.1,1.6c-0.8,0.4-1.6,0.6-2.4,0.6c-0.7,0-1.3-0.1-1.9-0.4c-0.6-0.2-1.1-0.6-1.5-1
		c-0.4-0.4-0.7-0.9-0.9-1.5c-0.2-0.6-0.3-1.2-0.3-1.9c0-0.9,0.2-1.7,0.5-2.4s0.8-1.4,1.3-1.9c0.6-0.6,1.3-1.1,2-1.5s1.7-0.8,2.6-1
		c0.9-0.3,1.9-0.5,3-0.6c1-0.1,2.1-0.2,3.2-0.2c0.1-0.6,0.1-1.2,0.2-1.8C138.5,41.5,138.6,40.8,138.6,40.1z M129.4,50.4
		c0,0.4,0,0.8,0.1,1.1c0.1,0.4,0.2,0.7,0.4,0.9c0.2,0.3,0.4,0.5,0.7,0.6c0.3,0.2,0.6,0.2,1,0.2c0.4,0,0.9-0.1,1.4-0.3
		c0.5-0.2,0.9-0.5,1.4-0.9c0.5-0.4,0.9-0.8,1.3-1.3c0.4-0.5,0.8-1.1,1.1-1.7c0.3-0.6,0.6-1.2,0.8-1.9c0.2-0.7,0.4-1.4,0.4-2.1
		c-0.7,0-1.5,0.1-2.2,0.1s-1.4,0.2-2.1,0.3c-0.7,0.2-1.3,0.4-1.8,0.6c-0.6,0.3-1,0.6-1.4,1c-0.4,0.4-0.7,0.8-0.9,1.4
		S129.4,49.7,129.4,50.4z"/>
	<path id="XMLID_92_" class="st0" d="M155.2,15.5c-0.2,1.7-0.4,3.4-0.6,5.2c-0.2,1.8-0.4,3.6-0.6,5.4c-0.2,1.8-0.3,3.6-0.5,5.5
		c-0.1,1.8-0.3,3.6-0.4,5.4c-0.1,1.8-0.2,3.5-0.3,5.2c-0.1,1.7-0.1,3.3-0.1,4.9c0,1,0,1.8,0,2.5c0,0.7,0.1,1.3,0.1,1.8
		c0.1,0.5,0.1,0.9,0.2,1.2c0.1,0.3,0.2,0.5,0.4,0.7c0.1,0.2,0.3,0.3,0.5,0.3s0.4,0.1,0.7,0.1c0.5,0,1-0.1,1.5-0.2
		c0.6-0.1,1.1-0.3,1.7-0.6l0.3,0.8c-0.4,0.3-0.8,0.6-1.3,0.9c-0.5,0.3-1.1,0.6-1.7,0.8s-1.2,0.4-1.8,0.6c-0.6,0.2-1.1,0.2-1.5,0.2
		c-0.5,0-1-0.1-1.3-0.4c-0.3-0.3-0.6-0.7-0.7-1.3c-0.2-0.6-0.3-1.4-0.3-2.4c0-1-0.1-2.2-0.1-3.6c0-0.5,0-1.3,0-2.2
		c0-1,0.1-2.1,0.1-3.3c0.1-1.3,0.1-2.7,0.2-4.2c0.1-1.5,0.1-3.1,0.2-4.7s0.2-3.2,0.3-4.9c0.1-1.6,0.2-3.2,0.3-4.8
		c0.1-1.5,0.2-3,0.3-4.3s0.2-2.6,0.2-3.6c0-0.2,0.1-0.4,0.2-0.6c0.1-0.2,0.3-0.3,0.5-0.4s0.4-0.2,0.7-0.2c0.3,0,0.5-0.1,0.8-0.1
		C153.9,15,154.6,15.2,155.2,15.5z"/>
	<path id="XMLID_95_" class="st0" d="M174.8,50.8c0.1,0,0.1,0.1,0.2,0.1c0.1,0.1,0.2,0.1,0.3,0.2c0.1,0.1,0.1,0.1,0.2,0.2
		s0.1,0.1,0.1,0.2c0,0,0,0.1,0,0.1c-0.6,0.8-1.2,1.4-1.8,2c-0.6,0.6-1.3,1-2,1.4c-0.7,0.4-1.4,0.7-2.1,0.8c-0.7,0.2-1.4,0.3-2.1,0.3
		c-1.2,0-2.3-0.2-3.3-0.7c-1-0.5-1.8-1.2-2.6-2s-1.3-1.8-1.7-3s-0.6-2.4-0.6-3.7c0-1.1,0.1-2.1,0.4-3.2c0.2-1.1,0.6-2.1,1-3
		c0.4-1,1-1.9,1.6-2.7c0.6-0.8,1.4-1.5,2.2-2.2c0.8-0.6,1.7-1.1,2.7-1.4s2-0.5,3.1-0.5c0.7,0,1.4,0.1,2.1,0.3s1.2,0.5,1.8,0.9
		c0.5,0.4,0.9,0.8,1.2,1.4c0.3,0.5,0.4,1.2,0.4,1.9c0,1-0.3,1.9-1,2.7c-0.7,0.8-1.6,1.4-2.7,1.9c-1.2,0.5-2.5,1-4.1,1.3
		c-1.6,0.3-3.3,0.6-5.1,0.7v0.3c0,1.3,0.2,2.4,0.5,3.5c0.3,1.1,0.8,2,1.3,2.7c0.6,0.7,1.2,1.3,2,1.7s1.6,0.6,2.5,0.6
		c0.9,0,1.8-0.2,2.7-0.7C172.9,52.5,173.9,51.8,174.8,50.8z M172,38.9c0-0.5-0.1-0.9-0.2-1.3c-0.2-0.4-0.4-0.7-0.6-1
		c-0.3-0.3-0.6-0.5-1-0.7c-0.4-0.2-0.8-0.3-1.2-0.3c-0.6,0-1.2,0.1-1.8,0.3c-0.5,0.2-1,0.5-1.4,0.9c-0.4,0.4-0.8,0.8-1.1,1.4
		c-0.3,0.5-0.6,1.1-0.8,1.7c-0.2,0.6-0.4,1.2-0.5,1.8c-0.1,0.6-0.2,1.2-0.3,1.8c1.4-0.1,2.7-0.3,3.8-0.5c1.1-0.2,2.1-0.6,2.8-0.9
		c0.8-0.4,1.4-0.8,1.8-1.4S172,39.5,172,38.9z"/>
	<path id="XMLID_98_" class="st0" d="M180.7,50.1c0.1,0.8,0.3,1.4,0.6,2c0.3,0.5,0.7,1,1.2,1.3s1,0.6,1.6,0.8
		c0.6,0.2,1.2,0.3,1.8,0.3c0.5,0,1.1-0.1,1.6-0.2c0.5-0.1,1-0.4,1.3-0.6c0.4-0.3,0.7-0.6,0.9-1s0.3-0.9,0.3-1.4c0-0.5-0.1-1-0.4-1.4
		c-0.2-0.4-0.6-0.8-1-1.1c-0.4-0.3-0.9-0.6-1.5-0.9c-0.6-0.3-1.1-0.6-1.7-0.8c-0.5-0.2-1.1-0.5-1.6-0.8c-0.5-0.3-1-0.5-1.5-0.8
		c-0.5-0.3-1-0.6-1.4-1c-0.4-0.3-0.8-0.7-1.1-1.2c-0.3-0.4-0.6-0.9-0.8-1.4c-0.2-0.5-0.3-1.1-0.3-1.7c0-0.7,0.1-1.3,0.4-1.9
		s0.6-1.1,1-1.6c0.4-0.5,0.9-0.9,1.4-1.2c0.5-0.3,1.1-0.6,1.7-0.9c0.6-0.2,1.2-0.4,1.9-0.5c0.6-0.1,1.3-0.2,1.9-0.2
		c0.8,0,1.5,0.1,2.3,0.3s1.3,0.4,1.9,0.8c0.5,0.3,1,0.7,1.3,1.2s0.5,1,0.5,1.6c0,0.2,0,0.5-0.1,0.7c-0.1,0.3-0.2,0.5-0.4,0.8
		c-0.2,0.2-0.4,0.4-0.7,0.6c-0.3,0.2-0.7,0.2-1.1,0.3c-0.4,0-0.9-0.1-1.3-0.2l0-0.1c0.1-0.3,0.2-0.6,0.3-0.9
		c0.1-0.3,0.1-0.5,0.1-0.7c0-0.5-0.1-0.8-0.4-1.2c-0.2-0.3-0.5-0.6-0.8-0.8c-0.3-0.2-0.7-0.3-1.1-0.4c-0.4-0.1-0.8-0.1-1.2-0.1
		c-0.7,0-1.3,0.1-1.9,0.3c-0.6,0.2-1,0.4-1.4,0.8c-0.4,0.3-0.7,0.7-0.9,1.1c-0.2,0.4-0.3,0.8-0.3,1.2c0,0.5,0.1,1,0.4,1.5
		c0.3,0.4,0.7,0.8,1.1,1.2c0.5,0.4,1,0.7,1.6,1c0.6,0.3,1.3,0.6,1.9,1c0.8,0.4,1.5,0.7,2.2,1.1c0.7,0.4,1.4,0.8,2,1.3
		c0.6,0.5,1.1,1,1.4,1.7c0.4,0.6,0.5,1.4,0.5,2.2c0,1-0.2,1.9-0.7,2.7c-0.5,0.8-1.1,1.5-1.8,2c-0.8,0.5-1.6,1-2.6,1.2
		c-1,0.3-2,0.4-3,0.4c-0.5,0-1.1,0-1.6-0.1c-0.6-0.1-1.1-0.2-1.6-0.4c-0.5-0.2-1-0.4-1.5-0.6s-0.9-0.5-1.2-0.8
		c-0.4-0.3-0.6-0.6-0.8-1c-0.2-0.4-0.3-0.8-0.3-1.2c0-0.4,0.1-0.7,0.2-1c0.2-0.3,0.4-0.5,0.6-0.7c0.3-0.2,0.6-0.3,0.9-0.4
		c0.3-0.1,0.7-0.1,1-0.1L180.7,50.1z"/>
</g>
</svg>
